<svg xmlns="http://www.w3.org/2000/svg" viewBox="0 0 136.98 119.2"><defs><style>.cls-1{fill:#66dbbb;}.cls-2{fill:none;stroke:#66dbbb;stroke-miterlimit:10;}</style></defs><title>Asset 8</title><g id="Layer_2" data-name="Layer 2"><g id="Layer_1-2" data-name="Layer 1"><polygon class="cls-1" points="57.99 29.99 51.93 31.56 57.71 33.97 51.49 34.67 56.86 37.88 50.61 37.68 55.46 41.63 49.3 40.53 53.54 45.13 47.6 43.17 51.15 48.33 45.54 45.55 48.32 51.15 43.17 47.6 45.13 53.55 40.53 49.3 41.62 55.46 37.68 50.61 37.88 56.86 34.67 51.49 33.97 57.71 31.56 51.93 29.99 57.99 28.41 51.93 26 57.71 25.31 51.49 22.1 56.86 22.3 50.61 18.35 55.46 19.44 49.3 14.85 53.54 16.8 47.6 11.65 51.15 14.43 45.54 8.83 48.32 12.37 43.17 6.43 45.13 10.67 40.53 4.51 41.62 9.37 37.68 3.12 37.88 8.49 34.67 2.27 33.97 8.04 31.56 1.99 29.99 8.04 28.41 2.27 26 8.49 25.31 3.12 22.1 9.37 22.3 4.51 18.35 10.68 19.44 6.43 14.85 12.38 16.8 8.83 11.65 14.43 14.43 11.65 8.83 16.81 12.37 14.85 6.43 19.45 10.67 18.35 4.51 22.3 9.37 22.1 3.12 25.31 8.49 26.01 2.27 28.41 8.04 29.99 1.99 31.56 8.04 33.97 2.27 34.67 8.49 37.88 3.12 37.68 9.37 41.63 4.51 40.53 10.68 45.13 6.43 43.17 12.38 48.33 8.83 45.55 14.43 51.15 11.65 47.6 16.81 53.55 14.85 49.3 19.45 55.46 18.35 50.61 22.3 56.86 22.1 51.49 25.31 57.71 26.01 51.93 28.41 57.99 29.99"/><polygon class="cls-2" points="57.99 29.99 51.93 31.56 57.71 33.97 51.49 34.67 56.86 37.88 50.61 37.68 55.46 41.63 49.3 40.53 53.54 45.13 47.6 43.17 51.15 48.33 45.54 45.55 48.32 51.15 43.17 47.6 45.13 53.55 40.53 49.3 41.62 55.46 37.68 50.61 37.88 56.86 34.67 51.49 33.97 57.71 31.56 51.93 29.99 57.99 28.41 51.93 26 57.71 25.31 51.49 22.1 56.86 22.3 50.61 18.35 55.46 19.44 49.3 14.85 53.54 16.8 47.6 11.65 51.15 14.43 45.54 8.83 48.32 12.37 43.17 6.43 45.13 10.67 40.53 4.51 41.62 9.37 37.68 3.12 37.88 8.49 34.67 2.27 33.97 8.04 31.56 1.99 29.99 8.04 28.41 2.27 26 8.49 25.31 3.12 22.1 9.37 22.3 4.51 18.35 10.68 19.44 6.43 14.85 12.38 16.8 8.83 11.65 14.43 14.43 11.65 8.83 16.81 12.37 14.85 6.43 19.45 10.67 18.35 4.51 22.3 9.37 22.1 3.12 25.31 8.49 26.01 2.27 28.41 8.04 29.99 1.99 31.56 8.04 33.97 2.27 34.67 8.49 37.88 3.12 37.68 9.37 41.63 4.51 40.53 10.68 45.13 6.43 43.17 12.38 48.33 8.83 45.55 14.43 51.15 11.65 47.6 16.81 53.55 14.85 49.3 19.45 55.46 18.35 50.61 22.3 56.86 22.1 51.49 25.31 57.71 26.01 51.93 28.41 57.99 29.99"/><polygon class="cls-1" points="134.99 66.99 128.93 68.56 134.71 70.97 128.49 71.67 133.86 74.88 127.61 74.68 132.46 78.63 126.3 77.53 130.54 82.13 124.6 80.17 128.15 85.33 122.54 82.55 125.32 88.15 120.17 84.6 122.13 90.55 117.53 86.3 118.62 92.46 114.68 87.61 114.88 93.86 111.67 88.49 110.97 94.71 108.56 88.93 106.99 94.99 105.42 88.93 103 94.71 102.31 88.49 99.1 93.86 99.3 87.61 95.35 92.46 96.44 86.3 91.84 90.54 93.8 84.6 88.65 88.15 91.43 82.54 85.83 85.32 89.37 80.17 83.43 82.13 87.67 77.53 81.51 78.62 86.37 74.68 80.12 74.88 85.49 71.67 79.27 70.97 85.04 68.56 78.99 66.99 85.04 65.42 79.27 63.01 85.49 62.31 80.12 59.1 86.37 59.3 81.52 55.35 87.67 56.44 83.43 51.84 89.38 53.8 85.83 48.65 91.43 51.43 88.65 45.83 93.81 49.37 91.85 43.43 96.45 47.67 95.35 41.51 99.3 46.37 99.1 40.12 102.31 45.49 103.01 39.27 105.42 45.04 106.99 38.99 108.56 45.04 110.97 39.27 111.67 45.49 114.88 40.12 114.68 46.37 118.63 41.52 117.53 47.67 122.13 43.43 120.17 49.38 125.33 45.83 122.55 51.43 128.15 48.65 124.6 53.81 130.55 51.85 126.3 56.45 132.46 55.35 127.61 59.3 133.86 59.1 128.49 62.31 134.71 63.01 128.93 65.42 134.99 66.99"/><polygon class="cls-2" points="134.99 66.99 128.93 68.56 134.71 70.97 128.49 71.67 133.86 74.88 127.61 74.68 132.46 78.63 126.3 77.53 130.54 82.13 124.6 80.17 128.15 85.33 122.54 82.55 125.32 88.15 120.17 84.6 122.13 90.55 117.53 86.3 118.62 92.46 114.68 87.61 114.88 93.86 111.67 88.49 110.97 94.71 108.56 88.93 106.99 94.99 105.42 88.93 103 94.71 102.31 88.49 99.1 93.86 99.3 87.61 95.35 92.46 96.44 86.3 91.84 90.54 93.8 84.6 88.65 88.15 91.43 82.54 85.83 85.32 89.37 80.17 83.43 82.13 87.67 77.53 81.51 78.62 86.37 74.68 80.12 74.88 85.49 71.67 79.27 70.97 85.04 68.56 78.99 66.99 85.04 65.42 79.27 63.01 85.49 62.31 80.12 59.1 86.37 59.3 81.52 55.35 87.67 56.44 83.43 51.84 89.38 53.8 85.83 48.65 91.43 51.43 88.65 45.83 93.81 49.37 91.85 43.43 96.45 47.67 95.35 41.51 99.3 46.37 99.1 40.12 102.31 45.49 103.01 39.27 105.42 45.04 106.99 38.99 108.56 45.04 110.97 39.27 111.67 45.49 114.88 40.12 114.68 46.37 118.63 41.52 117.53 47.67 122.13 43.43 120.17 49.38 125.33 45.83 122.55 51.43 128.15 48.65 124.6 53.81 130.55 51.85 126.3 56.45 132.46 55.35 127.61 59.3 133.86 59.1 128.49 62.31 134.71 63.01 128.93 65.42 134.99 66.99"/><polygon class="cls-1" points="67.72 92.28 61.68 93.61 67.47 95.78 61.3 96.24 66.73 99.22 60.55 98.78 65.5 102.5 59.45 101.19 63.82 105.58 58.02 103.42 61.72 108.39 56.28 105.43 59.24 110.87 54.27 107.17 56.43 112.97 52.04 108.6 53.35 114.65 49.63 109.7 50.06 115.88 47.09 110.45 46.63 116.62 44.47 110.82 43.14 116.87 41.81 110.82 39.64 116.62 39.18 110.45 36.2 115.88 36.64 109.7 32.91 114.65 34.23 108.6 29.84 112.97 32 107.16 27.03 110.86 29.99 105.42 24.55 108.38 28.25 103.42 22.45 105.58 26.82 101.19 20.77 102.5 25.72 98.78 19.54 99.21 24.97 96.24 18.8 95.78 24.6 93.61 18.55 92.28 24.6 90.95 18.8 88.78 24.97 88.33 19.54 85.35 25.72 85.78 20.77 82.06 26.82 83.37 22.45 78.98 28.26 81.14 24.56 76.18 30 79.14 27.04 73.7 32 77.4 29.84 71.6 34.23 75.97 32.92 69.91 36.64 74.86 36.21 68.69 39.18 74.12 39.64 67.94 41.81 73.74 43.14 67.7 44.47 73.74 46.63 67.94 47.09 74.12 50.07 68.69 49.64 74.86 53.36 69.92 52.05 75.97 56.44 71.6 54.27 77.4 59.24 73.7 56.28 79.14 61.72 76.18 58.02 81.15 63.82 78.99 59.45 83.38 65.5 82.07 60.56 85.79 66.73 85.36 61.3 88.33 67.47 88.79 61.68 90.95 67.72 92.28"/><polygon class="cls-2" points="67.72 92.28 61.68 93.61 67.47 95.78 61.3 96.24 66.73 99.22 60.55 98.78 65.5 102.5 59.45 101.19 63.82 105.58 58.02 103.42 61.72 108.39 56.28 105.43 59.24 110.87 54.27 107.17 56.43 112.97 52.04 108.6 53.35 114.65 49.63 109.7 50.06 115.88 47.09 110.45 46.63 116.62 44.47 110.82 43.14 116.87 41.81 110.82 39.64 116.62 39.18 110.45 36.2 115.88 36.64 109.7 32.91 114.65 34.23 108.6 29.84 112.97 32 107.16 27.03 110.86 29.99 105.42 24.55 108.38 28.25 103.42 22.45 105.58 26.82 101.19 20.77 102.5 25.72 98.78 19.54 99.21 24.97 96.24 18.8 95.78 24.6 93.61 18.55 92.28 24.6 90.95 18.8 88.78 24.97 88.33 19.54 85.35 25.72 85.78 20.77 82.06 26.82 83.37 22.45 78.98 28.26 81.14 24.56 76.18 30 79.14 27.04 73.7 32 77.4 29.84 71.6 34.23 75.97 32.92 69.91 36.64 74.86 36.21 68.69 39.18 74.12 39.64 67.94 41.81 73.74 43.14 67.7 44.47 73.74 46.63 67.94 47.09 74.12 50.07 68.69 49.64 74.86 53.36 69.92 52.05 75.97 56.44 71.6 54.27 77.4 59.24 73.7 56.28 79.14 61.72 76.18 58.02 81.15 63.82 78.99 59.45 83.38 65.5 82.07 60.56 85.79 66.73 85.36 61.3 88.33 67.47 88.79 61.68 90.95 67.72 92.28"/></g></g></svg>