<svg xmlns="http://www.w3.org/2000/svg" viewBox="0 0 113.13 124.34"><defs><style>.cls-1{fill:#ff8078;}</style></defs><title>Asset 10</title><g id="Layer_2" data-name="Layer 2"><g id="Layer_1-2" data-name="Layer 1"><path class="cls-1" d="M56.31,28.35c0,.54-3,1-3,1.51s2.31,1.26,2.25,1.78-1.87.8-2,1.31.39,1.14.26,1.65-.17,1-.33,1.55,1,1.52.84,2-3.5-.33-3.72.15,2.89,2.58,2.65,3-.9.81-1.18,1.26-3.05-.73-3.35-.29,1.44,2.35,1.11,2.76.51,1.93.16,2.33-1.37.34-1.74.71-2-.53-2.42-.18-1.2.17-1.62.49-1.49-.37-1.92-.07,1.26,3.9.81,4.18-1.39-.11-1.85.14-2-1.65-2.47-1.43-1,.17-1.48.36-.86.52-1.36.68-.91.41-1.43.54S33.92,55,33.4,55.11s-1.13-.09-1.66,0-1.17-1.3-1.7-1.27-1,.37-1.54.37-.92-2-1.45-2S26,53.34,25.47,53.28s-1-.21-1.49-.3-1-.15-1.49-.27-.55-1.55-1-1.71-2.16,3.12-2.65,2.93.44-3.71,0-3.93-3.1,4-3.56,3.71-.68-1.21-1.13-1.48,1.43-4.1,1-4.4-3.48,3-3.89,2.65-1.3-.3-1.69-.65S11.32,46.27,11,45.9s-.09-1.22-.44-1.61-1.26-.19-1.59-.6-2.56.59-2.86.15-1.74-.25-2-.7,1-1.89.77-2.35.42-1.38.2-1.87-.84-.78-1-1.27.49-1.25.33-1.76-2.26-.47-2.39-1S.71,34,.62,33.46s.54-1.25.47-1.78S3.53,30.4,3.5,29.87s1.11-1,1.11-1.52S0,27.16,0,26.63s1.2-1.06,1.26-1.58,2.13-.77,2.22-1.28S.39,22,.52,21.46s4.83.23,5-.27S4.8,19.93,5,19.44s-2.21-2.09-2-2.57.4-1.1.65-1.56,4,1,4.23.58-1.75-2.34-1.45-2.77-.27-1.6.06-2S7,10,7.37,9.63s2.89,1.23,3.26.85-1.06-2.69-.66-3,3.12,2.09,3.53,1.77-1-3.16-.6-3.46,1.1-.36,1.55-.63,1.15-.2,1.62-.45.23-2.13.71-2.34,2.27,2.6,2.76,2.41.73-1,1.23-1.17.54-2.15,1.06-2.28S23.6,4.6,24.12,4.5s.61-2.78,1.13-2.84S26.25,0,26.78,0,28,3.62,28.5,3.62s1,.08,1.49.11,1.24-2.2,1.76-2.14S32.43,4,33,4.07s1,.09,1.48.22,1.66-2,2.16-1.9,1,.52,1.49.7.19,2.28.67,2.49,2.11-1.91,2.58-1.66,1.28.08,1.73.36-.88,3.32-.45,3.62,1.06.24,1.47.56.81.6,1.2.95S48,8.13,48.35,8.5s-1.35,2.76-1,3.16,2.89-1,3.21-.59-2.4,3.08-2.1,3.51,3.93-1.29,4.2-.83-2.44,2.61-2.19,3.08.71.74.93,1.22,1.64.43,1.83.93.69.9.85,1.4.93.9,1.05,1.41-.54,1.24-.44,1.76.87,1,.93,1.51-.75,1.17-.72,1.7S56.31,27.82,56.31,28.35Z"/><path class="cls-1" d="M90.16,97.56c0,.53-3,1-3,1.5s2.31,1.26,2.25,1.78-1.87.8-2,1.32.39,1.14.26,1.65-.17,1-.33,1.54,1,1.52.84,2-3.5-.33-3.72.15,2.89,2.58,2.65,3-.9.82-1.18,1.27-3-.73-3.35-.3,1.44,2.35,1.11,2.76.51,1.94.16,2.33-1.37.34-1.74.71-2-.53-2.42-.18-1.2.17-1.62.5-1.49-.38-1.92-.08,1.26,3.91.81,4.18-1.39-.1-1.85.14-2-1.64-2.47-1.42-1,.17-1.48.35-.86.52-1.36.68-.91.41-1.43.54-.61,2.17-1.13,2.27-1.13-.09-1.66,0S64.42,123,63.89,123s-1,.36-1.54.36-.92-2-1.45-2-1.06,1.18-1.58,1.12-1-.2-1.49-.3-1-.14-1.49-.27-.55-1.55-1.05-1.7-2.16,3.11-2.65,2.93.44-3.72,0-3.93-3.1,4-3.56,3.7-.68-1.2-1.13-1.47,1.43-4.11,1-4.41-3.48,3-3.89,2.65-1.3-.3-1.69-.65,1.85-3.55,1.48-3.93-.09-1.21-.44-1.61-1.26-.18-1.59-.6-2.56.59-2.86.16-1.74-.26-2-.71,1-1.88.77-2.35.42-1.38.2-1.86-.84-.78-1-1.28.49-1.25.33-1.75-2.26-.48-2.39-1-1.21-.92-1.3-1.44.54-1.26.47-1.78,2.44-1.29,2.41-1.82,1.11-1,1.11-1.51-4.64-1.2-4.61-1.72,1.2-1.07,1.26-1.59,2.13-.76,2.22-1.28-3.09-1.8-3-2.31,4.83.23,5-.27-.71-1.26-.52-1.75-2.21-2.08-2-2.56.4-1.1.65-1.57,4,1,4.23.58S40,82.75,40.28,82.32s-.27-1.59.06-2,.53-1.08.88-1.48,2.89,1.23,3.26.86-1.06-2.7-.66-3,3.12,2.1,3.53,1.77-1-3.15-.6-3.46,1.1-.36,1.55-.63,1.15-.2,1.62-.44.23-2.13.71-2.35,2.27,2.6,2.76,2.41.73-1,1.23-1.17.54-2.15,1.06-2.27,1.77,3.3,2.29,3.21.61-2.79,1.13-2.85,1-1.62,1.53-1.66,1.19,3.63,1.72,3.63,1,.07,1.49.1,1.24-2.2,1.76-2.13.68,2.38,1.2,2.47,1,.1,1.48.22,1.66-2,2.16-1.89,1,.51,1.49.7.19,2.27.67,2.49,2.11-1.92,2.58-1.67,1.28.09,1.73.36-.88,3.33-.45,3.63,1.06.23,1.47.56.81.6,1.2,1,2.7-1.29,3.07-.91-1.35,2.76-1,3.15,2.89-1,3.21-.59-2.4,3.08-2.1,3.51,3.93-1.28,4.2-.83S84.07,85.56,84.32,86s.71.74.93,1.22,1.64.44,1.83.93.69.9.85,1.41.93.89,1,1.4-.54,1.25-.44,1.77.87,1,.93,1.5-.75,1.17-.72,1.7S90.16,97,90.16,97.56Z"/><path class="cls-1" d="M113.13,52c0,.53-2.28,1-2.32,1.48s1.7,1.24,1.62,1.75-1.48.77-1.6,1.28.18,1.1,0,1.59-.27,1-.46,1.49.56,1.45.32,1.91-2.71-.35-3,.09,1.77,2.43,1.47,2.85-.92.72-1.26,1.11-2.34-.76-2.71-.39.57,2.12.18,2.45-.13,1.68-.55,2-1.28.17-1.73.44-1.6-.63-2.06-.39-1.12,0-1.6.19-1.21-.5-1.71-.34-.18,3.18-.69,3.3-1.22-.34-1.74-.26S94.09,70.93,93.57,71s-1-.13-1.49-.13-1,.13-1.49.09-1,0-1.5-.07S87.77,72.16,87.27,72s-1-.47-1.49-.63-.61-1.35-1.09-1.55-1-.18-1.49-.42-.11-1.76-.55-2-1.32.29-1.74,0-.74-.63-1.13-1-.75-.62-1.12-1,.11-1.37-.23-1.77-2.79.93-3.1.51,1.7-2.33,1.43-2.78-3.75.92-4,.46,0-1.28-.2-1.76,2.64-2,2.47-2.54-3.52-.07-3.65-.57-.68-1.06-.76-1.57,2.77-1.4,2.73-1.92.54-1,.54-1.48-.62-1-.58-1.48-1.7-1.24-1.62-1.75-.77-1.32-.65-1.82,1.62-.72,1.78-1.21,1-.72,1.24-1.2.1-1.08.34-1.55,1-.56,1.33-1-.72-1.74-.41-2.16.11-1.36.44-1.76,1.18-.47,1.54-.84,2.07.7,2.46.36,1.27.09,1.69-.21-1.11-3.53-.67-3.8,1.4.16,1.86-.08,1.58.92,2.06.72.13-2.8.63-3,2,3.15,2.48,3,.76-1,1.28-1.07.8-2.26,1.32-2.3,1.13-.14,1.66-.14.92,3,1.43,3.06,1.23-1.95,1.74-1.87,1.27-.65,1.77-.53,1.17.09,1.66.25.24,2.45.72,2.65,1.82-1.4,2.28-1.17-.43,2.88,0,3.15,2.19-1.42,2.6-1.12.74.85,1.13,1.19.6,1,1,1.32,1.78-.12,2.12.28-1.27,2.37-1,2.79,1,.53,1.29,1,1.8.22,2,.69-2,2.07-1.84,2.55,2.24.24,2.4.73,1.43.77,1.55,1.27-2.5,1.58-2.42,2.09.09.94.13,1.46S113.13,51.51,113.13,52Z"/></g></g></svg>