<svg xmlns="http://www.w3.org/2000/svg" viewBox="0 0 114.44 109.22"><defs><style>.cls-1{fill:none;stroke:#000;stroke-linecap:round;stroke-linejoin:round;stroke-width:4px;}</style></defs><title>Asset 7</title><g id="Layer_2" data-name="Layer 2"><g id="Layer_1-2" data-name="Layer 1"><polyline class="cls-1" points="11.07 32.82 22.68 25.4 32.67 16.18 41.64 4.84 33.09 16.13 23.2 25.16 13.88 36.17 23.88 25.78 33.8 16.92 44.92 9.59 54.7 2 47.83 9.26 39.43 16.44 32.55 25.03 25.03 33.11 19.67 41.49 26.52 34.05 35.82 27.64 43.84 19.93 51.57 11.76 60.52 5.59 52.48 12.87 45.22 21.38 36.7 28.69 29.27 37.04 23.3 46.57 15.92 55.17 23.05 44.95 32.65 37.2 41.89 29.25 49.84 19.89 59.66 12.63 68.79 5.93 61.72 15.45 52.02 23.56 42.75 32.15 34.12 41.39 27.92 52.54 20.57 61.87 28.05 52.33 36.08 42.27 45.03 33.02 55.5 25.44 65.44 17.39 75.53 8.79 66.6 16.61 60.53 26.5 51.15 33.53 43.39 42.12 37.22 52.07 28.05 59.51 21.77 69.29 15.68 78.15 22.78 68.45 32.14 59.67 40.22 49.75 50.73 42.32 60.16 33.82 69.29 24.86 79.85 17.9 71.3 27.07 61.53 35.19 53.38 44.9 45.75 55.02 37.12 64.23 28.84 73.8 20.66 85 28.66 74.65 36.74 66.09 45.71 58.38 54.74 50.81 63.02 42.51 71.91 34.88 81.34 26.48 72.43 35.51 65.32 44.98 56.95 53.34 49.79 62.74 41.42 71.14 34.57 80.78 41.92 72.53 49.92 64.86 57.02 56.41 65.33 49.17 73.42 41.71 81.81 35.24 73.97 43.04 66.72 51.93 59.61 60.96 52.23 69.74 43.51 77.33 37.46 87.02 45.96 77.56 54.28 67.73 62.77 58.02 72.69 49.79 83.19 40.55 74.27 50.15 66.04 58.85 57.72 67.47 50.34 76.93 42.07 85.44 50.1 78 58.67 71.01 66.14 62.93 73.37 54.45 81.39 48.88 74.26 56.07 68.35 66.05 60.42 74.2 51.83 81.83 45.71 91.81 55.1 82 64.45 72.44 73.41 62.35 83.93 52.86 77.63 62.8 70.18 70.69 63.82 79.52 54.86 86.03 48.25 94.83 56.28 84.59 66.69 76.82 75.37 67.32 84.99 60.55 78.58 69.21 71.48 78.82 63.2 87.46 55.12 96.1 64.14 87.74 72.76 78.85 81.77 70.3 91.27 63.13 83.61 73.51 75.57 84.18 67.44 93.26 74.86 84.57 85.16 77.31 95.68 71.38 89.77 79 83.86 87.43 75.94 94.02"/><path class="cls-1" d="M2,43.15a413.63,413.63,0,0,0,43.72,61.11c-11-18.72-22.13-37.69-28.28-58.52a294.2,294.2,0,0,0,38,61.48C41.77,82.92,27.93,58.29,20.77,31.33A404.68,404.68,0,0,0,63.45,99.62L27.07,23.71a645.28,645.28,0,0,0,49.08,77.71L39.54,19.3A461.63,461.63,0,0,0,85,94.74Q67.22,60.18,52,24.37A343,343,0,0,0,89.73,86.75,452.2,452.2,0,0,1,57,18.38c10.89,22.68,26.18,42.91,41.36,63C86.72,60.08,75.08,38.73,66.47,16.09a225.05,225.05,0,0,0,40.4,55.79Q90.71,40.94,76,9.26a312.38,312.38,0,0,0,36.41,51.28L87.88,10.33l19.69,34"/></g></g></svg>