<svg xmlns="http://www.w3.org/2000/svg" viewBox="0 0 151.4 132.86"><defs><style>.cls-1{fill:#152e2e;}</style></defs><title>Asset 13</title><g id="Layer_2" data-name="Layer 2"><g id="Layer_1-2" data-name="Layer 1"><path class="cls-1" d="M65.34,50.87l4,4a1.53,1.53,0,0,0,2.12,0l4-4H73.29l4,4a1.53,1.53,0,0,0,2.12,0l4-4H81.24l4,4a1.53,1.53,0,0,0,2.12,0l4-4H89.19l4,4a1.53,1.53,0,0,0,2.12,0l4-4H97.13l4,4a1.53,1.53,0,0,0,2.12,0l4-4h-2.12l4,4a1.54,1.54,0,0,0,2.13,0l4-4H113l4,4a1.54,1.54,0,0,0,2.13,0l4-4H121l4,4a1.53,1.53,0,0,0,2.12,0l4-4h-2.12l4,4a1.53,1.53,0,0,0,2.12,0l4-4h-2.12l4,4a1.53,1.53,0,0,0,2.12,0l4-4h-2.12l4,4A1.5,1.5,0,0,0,151,52.75l-4-4a1.51,1.51,0,0,0-2.12,0l-4,4H143l-4-4a1.51,1.51,0,0,0-2.12,0l-4,4H135l-4-4a1.51,1.51,0,0,0-2.12,0l-4,4h2.12l-4-4a1.51,1.51,0,0,0-2.12,0l-4,4h2.13l-4-4a1.51,1.51,0,0,0-2.12,0l-4,4h2.13l-4-4a1.51,1.51,0,0,0-2.12,0l-4,4h2.12l-4-4a1.51,1.51,0,0,0-2.12,0l-4,4h2.12l-4-4a1.51,1.51,0,0,0-2.12,0l-4,4h2.12l-4-4a1.51,1.51,0,0,0-2.12,0l-4,4h2.12l-4-4a1.51,1.51,0,0,0-2.12,0l-4,4h2.12l-4-4a1.5,1.5,0,0,0-2.12,2.12Z"/><path class="cls-1" d="M.61,35.41l4,4a2,2,0,0,0,2.76,0l3.95-4H8.51l4,4a2,2,0,0,0,2.76,0l4-4H16.41l3.95,4a2,2,0,0,0,2.76,0l3.94-4H24.31l4,4a2,2,0,0,0,2.75,0l3.95-4H32.2l3.95,4a2,2,0,0,0,2.76,0l3.94-4H40.09l4,4a2,2,0,0,0,2.75,0l4-4H48l3.95,4a2,2,0,0,0,2.76,0l3.95-4H55.89l4,4a2,2,0,0,0,2.75,0l4-4H63.8l4,4a2,2,0,0,0,2.76,0l3.95-4H71.7l4,4a2,2,0,0,0,2.76,0l4-4H79.61l4,4c1.77,1.78,4.52-1,2.76-2.76l-4-4a2,2,0,0,0-2.76,0l-4,4h2.76l-4-4a2,2,0,0,0-2.76,0l-4,4h2.76l-4-4a2,2,0,0,0-2.76,0l-3.95,4H62.6l-4-4a2,2,0,0,0-2.76,0l-4,4H54.7l-4-4a2,2,0,0,0-2.76,0l-3.94,4H46.8l-3.95-4a2,2,0,0,0-2.76,0l-3.94,4h2.76l-3.95-4a2,2,0,0,0-2.76,0l-3.94,4H31l-4-4a2,2,0,0,0-2.75,0l-3.95,4h2.76l-3.95-4a2,2,0,0,0-2.76,0l-3.95,4h2.76l-4-4a2,2,0,0,0-2.76,0l-3.95,4H7.32l-3.95-4c-1.76-1.79-4.52,1-2.76,2.76Z"/><path class="cls-1" d="M39,74.34l4,4a2.14,2.14,0,0,0,3,0l4-4H47l4,4a2.14,2.14,0,0,0,3,0l4-4h-3l4,4a2.14,2.14,0,0,0,3,0l4-4h-3l4,4a2.14,2.14,0,0,0,3,0l4-4h-3l4,4a2.14,2.14,0,0,0,3,0l4-4h-3l4,4a2.14,2.14,0,0,0,3,0l4-4h-3l4,4a2.14,2.14,0,0,0,3,0l4-4h-3l4,4a2.14,2.14,0,0,0,3,0l4-4h-3l4,4a2.14,2.14,0,0,0,3,0l4-4h-3l4,4a2.14,2.14,0,0,0,3,0l4-4h-3l4,4c1.91,1.92,4.88-1,3-3l-4-4a2.13,2.13,0,0,0-3,0l-4,4h3l-4-4a2.13,2.13,0,0,0-3,0l-4,4h3l-4-4a2.13,2.13,0,0,0-3,0l-4,4h3l-4-4a2.13,2.13,0,0,0-3,0l-4,4h3l-4-4a2.13,2.13,0,0,0-3,0l-4,4h3l-4-4a2.13,2.13,0,0,0-3,0l-4,4h3l-4-4a2.13,2.13,0,0,0-3,0l-4,4h3l-4-4a2.13,2.13,0,0,0-3,0l-4,4h3l-4-4a2.13,2.13,0,0,0-3,0l-4,4h3l-4-4a2.13,2.13,0,0,0-3,0l-4,4h3l-4-4c-1.91-1.92-4.88,1-3,3Z"/><path class="cls-1" d="M.43,91.41l3.91,4a1.51,1.51,0,0,0,2.12,0l3.9-4H8.24l3.9,4a1.51,1.51,0,0,0,2.12,0l3.91-4H16.05l3.9,4a1.51,1.51,0,0,0,2.12,0l3.9-4H23.85l3.91,4a1.51,1.51,0,0,0,2.12,0l3.9-4H31.65l3.91,4a1.51,1.51,0,0,0,2.12,0l3.9-4H39.46l3.9,4a1.52,1.52,0,0,0,2.13,0l3.9-4H47.27l3.9,4a1.51,1.51,0,0,0,2.12,0l3.91-4H55.08l3.9,4a1.51,1.51,0,0,0,2.12,0l3.91-4H62.89l3.9,4a1.52,1.52,0,0,0,2.13,0l3.9-4H70.7l3.91,4a1.51,1.51,0,0,0,2.12,0l3.91-4H78.52l3.91,4c1.35,1.39,3.48-.74,2.12-2.12l-3.91-4a1.53,1.53,0,0,0-2.12,0l-3.91,4h2.12l-3.91-4a1.53,1.53,0,0,0-2.12,0l-3.91,4h2.13l-3.91-4a1.53,1.53,0,0,0-2.12,0l-3.91,4H61.1l-3.9-4a1.53,1.53,0,0,0-2.12,0l-3.91,4h2.12l-3.9-4a1.53,1.53,0,0,0-2.12,0l-3.91,4h2.13l-3.91-4a1.53,1.53,0,0,0-2.12,0l-3.9,4h2.12l-3.9-4a1.54,1.54,0,0,0-2.13,0l-3.89,4h2.12l-3.91-4a1.53,1.53,0,0,0-2.12,0l-3.9,4h2.12l-3.9-4a1.53,1.53,0,0,0-2.12,0l-3.91,4h2.12l-3.9-4a1.53,1.53,0,0,0-2.12,0l-3.9,4H6.46l-3.91-4C1.2,87.91-.92,90,.43,91.41Z"/><path class="cls-1" d="M.43,128.41l3.91,4a1.51,1.51,0,0,0,2.12,0l3.9-4H8.24l3.9,4a1.51,1.51,0,0,0,2.12,0l3.91-4H16.05l3.9,4a1.51,1.51,0,0,0,2.12,0l3.9-4H23.85l3.91,4a1.51,1.51,0,0,0,2.12,0l3.9-4H31.65l3.91,4a1.51,1.51,0,0,0,2.12,0l3.9-4H39.46l3.9,4a1.52,1.52,0,0,0,2.13,0l3.9-4H47.27l3.9,4a1.51,1.51,0,0,0,2.12,0l3.91-4H55.08l3.9,4a1.51,1.51,0,0,0,2.12,0l3.91-4H62.89l3.9,4a1.52,1.52,0,0,0,2.13,0l3.9-4H70.7l3.91,4a1.51,1.51,0,0,0,2.12,0l3.91-4H78.52l3.91,4c1.35,1.39,3.48-.74,2.12-2.12l-3.91-4a1.53,1.53,0,0,0-2.12,0l-3.91,4h2.12l-3.91-4a1.53,1.53,0,0,0-2.12,0l-3.91,4h2.13l-3.91-4a1.53,1.53,0,0,0-2.12,0l-3.91,4H61.1l-3.9-4a1.53,1.53,0,0,0-2.12,0l-3.91,4h2.12l-3.9-4a1.53,1.53,0,0,0-2.12,0l-3.91,4h2.13l-3.91-4a1.53,1.53,0,0,0-2.12,0l-3.9,4h2.12l-3.9-4a1.54,1.54,0,0,0-2.13,0l-3.89,4h2.12l-3.91-4a1.53,1.53,0,0,0-2.12,0l-3.9,4h2.12l-3.9-4a1.53,1.53,0,0,0-2.12,0l-3.91,4h2.12l-3.9-4a1.53,1.53,0,0,0-2.12,0l-3.9,4H6.46l-3.91-4c-1.35-1.38-3.47.74-2.12,2.12Z"/><path class="cls-1" d="M65.7,108.61l3,4a1.53,1.53,0,0,0,2.59,0l3-4H71.74l3,4a1.53,1.53,0,0,0,2.59,0l3-4H77.79l3,4a1.53,1.53,0,0,0,2.59,0l3-4H83.82l3,4a1.53,1.53,0,0,0,2.59,0l3-4H89.87l3,4a1.53,1.53,0,0,0,2.59,0l3-4H95.91l3,4a1.53,1.53,0,0,0,2.59,0l3-4H102l3,4a1.53,1.53,0,0,0,2.59,0l3-4H108l3,4a1.54,1.54,0,0,0,2.6,0l3-4h-2.59l3,4a1.53,1.53,0,0,0,2.59,0l3-4h-2.59l3,4a1.54,1.54,0,0,0,2.6,0l3-4h-2.59l3,4c1.15,1.52,3.76,0,2.59-1.51l-3-4a1.52,1.52,0,0,0-2.59,0l-3,4h2.6l-3-4a1.52,1.52,0,0,0-2.59,0l-3,4h2.59l-3-4a1.52,1.52,0,0,0-2.59,0l-3,4h2.6l-3-4a1.52,1.52,0,0,0-2.59,0l-3,4h2.59l-3-4a1.52,1.52,0,0,0-2.59,0l-3,4h2.59l-3-4a1.52,1.52,0,0,0-2.59,0l-3,4h2.59l-3-4a1.52,1.52,0,0,0-2.59,0l-3,4h2.59l-3-4a1.52,1.52,0,0,0-2.59,0l-3,4h2.59l-3-4a1.52,1.52,0,0,0-2.59,0l-3,4h2.59l-3-4a1.52,1.52,0,0,0-2.59,0l-3,4h2.59l-3-4c-1.15-1.53-3.76,0-2.59,1.51Z"/><path class="cls-1" d="M29.72,3.13l3.55,4a1.82,1.82,0,0,0,2.54,0l3.55-4H36.81l3.55,4a1.82,1.82,0,0,0,2.54,0l3.55-4H43.9l3.55,4a1.83,1.83,0,0,0,2.55,0l3.54-4H51l3.55,4a1.83,1.83,0,0,0,2.55,0l3.54-4H58.08l3.55,4a1.83,1.83,0,0,0,2.55,0l3.54-4H65.17l3.55,4a1.83,1.83,0,0,0,2.55,0l3.54-4H72.27l3.55,4a1.82,1.82,0,0,0,2.54,0l3.55-4H79.37l3.54,4a1.83,1.83,0,0,0,2.55,0l3.54-4H86.46l3.55,4a1.82,1.82,0,0,0,2.54,0l3.55-4H93.56l3.55,4a1.82,1.82,0,0,0,2.54,0l3.56-4h-2.55l3.56,4c1.54,1.73,4.08-.82,2.55-2.55l-3.56-4a1.81,1.81,0,0,0-2.55,0l-3.55,4h2.54L96.1.58a1.8,1.8,0,0,0-2.54,0L90,4.58h2.54L89,.58a1.8,1.8,0,0,0-2.54,0l-3.55,4h2.55l-3.55-4a1.8,1.8,0,0,0-2.54,0l-3.55,4h2.54l-3.55-4a1.8,1.8,0,0,0-2.54,0l-3.55,4h2.55l-3.55-4a1.81,1.81,0,0,0-2.55,0l-3.54,4h2.55l-3.55-4a1.81,1.81,0,0,0-2.55,0l-3.54,4h2.55l-3.55-4A1.81,1.81,0,0,0,51,.58l-3.54,4H50l-3.55-4a1.81,1.81,0,0,0-2.55,0l-3.54,4H42.9l-3.54-4a1.81,1.81,0,0,0-2.55,0l-3.54,4h2.54l-3.54-4c-1.54-1.74-4.08.82-2.55,2.55Z"/><path class="cls-1" d="M72.93,18.91l3.41,4a1.49,1.49,0,0,0,2.12,0l3.4-4H79.74l3.4,4a1.49,1.49,0,0,0,2.12,0l3.41-4H86.55l3.4,4a1.49,1.49,0,0,0,2.12,0l3.4-4H93.35l3.4,4a1.49,1.49,0,0,0,2.12,0l3.4-4h-2.12l3.41,4a1.49,1.49,0,0,0,2.12,0l3.4-4H107l3.4,4a1.5,1.5,0,0,0,2.13,0l3.4-4h-2.12l3.4,4a1.49,1.49,0,0,0,2.12,0l3.41-4h-2.12l3.4,4a1.5,1.5,0,0,0,2.13,0l3.4-4h-2.12l3.4,4a1.49,1.49,0,0,0,2.12,0l3.41-4H134.2l3.41,4a1.5,1.5,0,0,0,2.12,0l3.41-4H141l3.41,4c1.26,1.47,3.37-.66,2.12-2.12l-3.41-4a1.51,1.51,0,0,0-2.12,0l-3.41,4h2.12l-3.41-4a1.51,1.51,0,0,0-2.12,0l-3.41,4h2.12l-3.4-4a1.51,1.51,0,0,0-2.12,0l-3.41,4h2.13l-3.41-4a1.51,1.51,0,0,0-2.12,0l-3.41,4h2.12l-3.4-4a1.51,1.51,0,0,0-2.12,0l-3.41,4h2.13l-3.41-4a1.51,1.51,0,0,0-2.12,0l-3.4,4h2.12l-3.41-4a1.51,1.51,0,0,0-2.12,0l-3.4,4h2.12l-3.4-4a1.51,1.51,0,0,0-2.12,0l-3.4,4h2.12l-3.4-4a1.51,1.51,0,0,0-2.12,0l-3.41,4h2.12l-3.4-4a1.51,1.51,0,0,0-2.12,0l-3.4,4h2.12l-3.41-4c-1.25-1.47-3.36.66-2.12,2.12Z"/></g></g></svg>